<svg xmlns="http://www.w3.org/2000/svg" version="1.1" xmlns:xlink="http://www.w3.org/1999/xlink" xmlns:svgjs="http://svgjs.dev/svgjs" width="1360" height="768" preserveAspectRatio="none" viewBox="0 0 1360 768"><g mask="url(&quot;#SvgjsMask1681&quot;)" fill="none"><rect width="1360" height="768" x="0" y="0" fill="rgba(26, 26, 26, 1)"></rect><path d="M0 -82L71.02 -41L71.02 41L0 82L-71.02 41L-71.02 -41zM71.02 41L142.03 82L142.03 164L71.02 205L0 164L0 82zM0 164L71.02 205L71.02 287L0 328L-71.02 287L-71.02 205zM71.02 287L142.03 328L142.03 410L71.02 451L0 410L0 328zM0 410L71.02 451L71.02 533L0 574L-71.02 533L-71.02 451zM71.02 533L142.03 574L142.03 656L71.02 697L0 656L0 574zM0 656L71.02 697L71.02 779L0 820L-71.02 779L-71.02 697zM142.03 -82L213.05 -41L213.05 41L142.03 82L71.02 41L71.02 -41zM213.05 41L284.06 82L284.06 164L213.05 205L142.03 164L142.03 82zM142.03 164L213.05 205L213.05 287L142.03 328L71.02 287L71.02 205zM213.05 287L284.06 328L284.06 410L213.05 451L142.03 410L142.03 328zM142.03 410L213.05 451L213.05 533L142.03 574L71.02 533L71.02 451zM213.05 533L284.06 574L284.06 656L213.05 697L142.03 656L142.03 574zM142.03 656L213.05 697L213.05 779L142.03 820L71.02 779L71.02 697zM284.06 -82L355.08 -41L355.08 41L284.06 82L213.05 41L213.05 -41zM355.08 41L426.1 82L426.1 164L355.08 205L284.06 164L284.06 82zM284.06 164L355.08 205L355.08 287L284.06 328L213.05 287L213.05 205zM355.08 287L426.1 328L426.1 410L355.08 451L284.06 410L284.06 328zM284.06 410L355.08 451L355.08 533L284.06 574L213.05 533L213.05 451zM355.08 533L426.1 574L426.1 656L355.08 697L284.06 656L284.06 574zM284.06 656L355.08 697L355.08 779L284.06 820L213.05 779L213.05 697zM426.1 -82L497.11 -41L497.11 41L426.1 82L355.08 41L355.08 -41zM497.11 41L568.13 82L568.13 164L497.11 205L426.1 164L426.1 82zM426.1 164L497.11 205L497.11 287L426.1 328L355.08 287L355.08 205zM497.11 287L568.13 328L568.13 410L497.11 451L426.1 410L426.1 328zM426.1 410L497.11 451L497.11 533L426.1 574L355.08 533L355.08 451zM497.11 533L568.13 574L568.13 656L497.11 697L426.1 656L426.1 574zM426.1 656L497.11 697L497.11 779L426.1 820L355.08 779L355.08 697zM568.13 -82L639.14 -41L639.14 41L568.13 82L497.11 41L497.11 -41zM639.14 41L710.16 82L710.16 164L639.14 205L568.13 164L568.13 82zM568.13 164L639.14 205L639.14 287L568.13 328L497.11 287L497.11 205zM639.14 287L710.16 328L710.16 410L639.14 451L568.13 410L568.13 328zM568.13 410L639.14 451L639.14 533L568.13 574L497.11 533L497.11 451zM639.14 533L710.16 574L710.16 656L639.14 697L568.13 656L568.13 574zM568.13 656L639.14 697L639.14 779L568.13 820L497.11 779L497.11 697zM710.16 -82L781.18 -41L781.18 41L710.16 82L639.14 41L639.14 -41zM781.18 41L852.19 82L852.19 164L781.18 205L710.16 164L710.16 82zM710.16 164L781.18 205L781.18 287L710.16 328L639.14 287L639.14 205zM781.18 287L852.19 328L852.19 410L781.18 451L710.16 410L710.16 328zM710.16 410L781.18 451L781.18 533L710.16 574L639.14 533L639.14 451zM781.18 533L852.19 574L852.19 656L781.18 697L710.16 656L710.16 574zM710.16 656L781.18 697L781.18 779L710.16 820L639.14 779L639.14 697zM852.19 -82L923.21 -41L923.21 41L852.19 82L781.18 41L781.18 -41zM923.21 41L994.23 82L994.23 164L923.21 205L852.19 164L852.19 82zM852.19 164L923.21 205L923.21 287L852.19 328L781.18 287L781.18 205zM923.21 287L994.23 328L994.23 410L923.21 451L852.19 410L852.19 328zM852.19 410L923.21 451L923.21 533L852.19 574L781.18 533L781.18 451zM923.21 533L994.23 574L994.23 656L923.21 697L852.19 656L852.19 574zM852.19 656L923.21 697L923.21 779L852.19 820L781.18 779L781.18 697zM994.23 -82L1065.24 -41L1065.24 41L994.23 82L923.21 41L923.21 -41zM1065.24 41L1136.26 82L1136.26 164L1065.24 205L994.23 164L994.23 82zM994.23 164L1065.24 205L1065.24 287L994.23 328L923.21 287L923.21 205zM1065.24 287L1136.26 328L1136.26 410L1065.24 451L994.23 410L994.23 328zM994.23 410L1065.24 451L1065.24 533L994.23 574L923.21 533L923.21 451zM1065.24 533L1136.26 574L1136.26 656L1065.24 697L994.23 656L994.23 574zM994.23 656L1065.24 697L1065.24 779L994.23 820L923.21 779L923.21 697zM1136.26 -82L1207.27 -41L1207.27 41L1136.26 82L1065.24 41L1065.24 -41zM1207.27 41L1278.29 82L1278.29 164L1207.27 205L1136.26 164L1136.26 82zM1136.26 164L1207.27 205L1207.27 287L1136.26 328L1065.24 287L1065.24 205zM1207.27 287L1278.29 328L1278.29 410L1207.27 451L1136.26 410L1136.26 328zM1136.26 410L1207.27 451L1207.27 533L1136.26 574L1065.24 533L1065.24 451zM1207.27 533L1278.29 574L1278.29 656L1207.27 697L1136.26 656L1136.26 574zM1136.26 656L1207.27 697L1207.27 779L1136.26 820L1065.24 779L1065.24 697zM1278.29 -82L1349.31 -41L1349.31 41L1278.29 82L1207.27 41L1207.27 -41zM1349.31 41L1420.32 82L1420.32 164L1349.31 205L1278.29 164L1278.29 82zM1278.29 164L1349.31 205L1349.31 287L1278.29 328L1207.27 287L1207.27 205zM1349.31 287L1420.32 328L1420.32 410L1349.31 451L1278.29 410L1278.29 328zM1278.29 410L1349.31 451L1349.31 533L1278.29 574L1207.27 533L1207.27 451zM1349.31 533L1420.32 574L1420.32 656L1349.31 697L1278.29 656L1278.29 574zM1278.29 656L1349.31 697L1349.31 779L1278.29 820L1207.27 779L1207.27 697z" stroke="rgba(36, 36, 36, 1)" stroke-width="2"></path></g><defs><mask id="SvgjsMask1681"><rect width="1360" height="768" fill="#ffffff"></rect></mask></defs></svg>