<svg version="1.1" id="Layer_1" xmlns="http://www.w3.org/2000/svg" xmlns:xlink="http://www.w3.org/1999/xlink" x="0px" y="0px"
	 width="100%" viewBox="0 0 1080 1980" enable-background="new 0 0 1080 1980" xml:space="preserve">
<path fill="#222222" opacity="1.000000" stroke="none" 
	d="
M1.000000,941.000000 
	C1.000000,707.643311 1.000000,474.286682 1.350925,240.556641 
	C5.302565,241.859314 8.893177,243.557510 12.505553,245.208069 
	C49.344440,262.040497 85.972229,279.277374 120.148041,301.227020 
	C145.012970,317.196655 168.672882,334.447937 187.364212,357.898163 
	C214.534439,391.986023 220.104965,429.107697 204.937668,469.669281 
	C195.079926,496.031647 179.406693,518.883850 161.184311,539.934875 
	C133.282150,572.168396 104.651993,603.770447 76.555397,635.837341 
	C61.111935,653.463074 48.326874,672.776672 41.412952,695.497864 
	C36.242840,712.488403 35.996769,729.168030 44.450726,745.297302 
	C53.956917,763.434082 69.162178,774.820190 87.900574,782.178284 
	C116.368134,793.356750 146.296417,797.132507 176.412537,799.987427 
	C205.366241,802.732117 234.339828,805.267334 263.293030,808.017334 
	C293.179230,810.855835 322.224518,817.019104 349.857391,829.275391 
	C366.617584,836.709229 382.318817,845.307739 393.899567,860.081177 
	C408.166626,878.281494 412.362396,899.600952 412.726532,921.874268 
	C413.121429,946.030762 408.075165,969.401611 400.294647,992.168701 
	C388.551361,1026.531250 377.137451,1060.973755 370.415924,1096.769409 
	C366.845795,1115.781982 374.422333,1140.634033 400.086060,1144.646851 
	C404.509186,1145.338501 409.008698,1145.838257 413.478394,1145.882935 
	C430.253601,1146.050781 446.429657,1142.398560 462.395264,1137.666138 
	C504.002991,1125.333374 545.480957,1112.544678 587.230835,1100.714722 
	C627.613647,1089.271973 668.908630,1087.130249 710.289001,1093.455688 
	C742.480408,1098.376465 773.910950,1107.394775 803.878357,1120.003296 
	C844.982849,1137.298096 885.279175,1156.509644 925.974060,1174.783447 
	C952.889709,1186.869873 979.535461,1199.711792 1008.073486,1207.692139 
	C1031.921021,1214.360840 1056.009155,1219.946045 1081.000000,1220.000000 
	C1081.000000,1273.023315 1081.000000,1326.046753 1080.618896,1379.539795 
	C1073.333984,1377.217285 1066.064087,1375.089355 1059.588379,1371.520386 
	C1028.042603,1354.133789 996.415466,1336.860352 965.383423,1318.585205 
	C934.765442,1300.554077 904.287415,1282.304443 871.458191,1268.555664 
	C839.576355,1255.203613 806.542725,1251.112061 772.489380,1258.885986 
	C747.442810,1264.603638 724.566101,1275.465088 703.136658,1289.299194 
	C672.021179,1309.386230 643.948059,1333.511963 616.020813,1357.637695 
	C581.121094,1387.786621 546.495728,1418.235962 509.421173,1445.711060 
	C465.919220,1477.949463 419.704010,1504.378540 364.671997,1511.338379 
	C341.005463,1514.331421 317.562103,1513.996826 294.525513,1507.200562 
	C247.273666,1493.259888 217.060516,1461.901489 200.081772,1416.176270 
	C186.024948,1378.320068 184.636703,1339.244507 186.395569,1299.710693 
	C187.689972,1270.616699 189.474884,1241.544800 190.968079,1212.459229 
	C191.906754,1194.174927 192.924774,1175.890869 193.524658,1157.594116 
	C194.442764,1129.591919 192.467606,1101.790405 187.705154,1074.136597 
	C181.975861,1040.868530 166.837753,1012.060486 146.889557,985.428711 
	C135.734680,970.536560 121.691086,959.161194 105.026955,950.747375 
	C71.560257,933.849792 36.368641,936.811646 1.000000,941.000000 
z"/>
<path fill="#232322" opacity="1.000000" stroke="none" 
	d="
M1081.000000,985.000000 
	C1081.000000,1016.687561 1081.000000,1048.375122 1080.721802,1080.726318 
	C1069.233887,1089.207397 1056.654907,1093.290405 1043.139160,1093.746094 
	C1011.518921,1094.812378 981.807312,1087.302734 954.194214,1072.022217 
	C923.546265,1055.062256 895.972778,1033.569336 868.194885,1012.431213 
	C848.739990,997.626648 829.192078,983.140015 806.441406,973.462585 
	C784.457947,964.111572 762.039246,960.443726 738.354553,964.770813 
	C717.358032,968.606812 698.585205,977.443848 681.094727,989.271362 
	C666.778076,998.952698 652.866882,1009.244995 638.394043,1018.680725 
	C622.549072,1029.011230 605.406677,1034.644043 585.975708,1031.960327 
	C568.276672,1029.515625 555.292908,1019.891174 553.594543,1003.935364 
	C552.165588,990.511230 552.065308,976.595093 553.929504,963.253479 
	C556.699524,943.429321 561.797974,923.935303 565.766418,904.272644 
	C571.355103,876.581970 572.853333,848.994629 564.242676,821.492493 
	C558.498413,803.145630 549.836243,787.000916 534.130737,775.093872 
	C512.606445,758.775391 487.926910,751.662231 461.525513,751.276611 
	C437.587219,750.927002 413.608215,752.307495 389.668762,753.398865 
	C365.442871,754.503113 341.472412,753.515686 318.014862,746.815430 
	C267.570343,732.406799 242.150055,684.931885 246.371078,639.012024 
	C248.614594,614.605103 256.323853,591.591309 267.743225,570.039124 
	C283.669312,539.981262 300.164276,510.218994 316.777161,480.532440 
	C332.476013,452.479279 347.230499,424.120972 351.584259,391.673096 
	C354.281281,371.572723 354.596100,351.557190 348.495819,331.904114 
	C340.006042,304.552856 321.568573,285.034027 298.913239,268.756134 
	C273.943390,250.815247 245.782333,239.660736 216.972092,229.879593 
	C187.167023,219.760712 156.967819,210.697067 127.560097,199.540070 
	C90.545395,185.497086 62.241203,161.079468 45.888245,124.175850 
	C40.118328,111.154915 37.026978,97.681679 39.806477,83.455040 
	C43.764248,63.197510 56.251472,48.549755 71.966324,36.318512 
	C88.829048,23.193851 108.587921,15.728469 128.304764,8.231429 
	C134.258896,5.967464 140.104614,3.418447 146.000000,1.000001 
	C229.354233,1.000000 312.708466,1.000000 396.679810,1.331071 
	C392.699402,5.474156 388.288849,9.542769 383.471344,13.052836 
	C364.660492,26.758553 343.477600,35.967846 322.136261,44.802845 
	C304.334717,52.172432 286.510956,59.551331 270.902435,71.066826 
	C255.302094,82.576286 247.803635,98.013641 249.712021,117.714432 
	C251.037857,131.401276 257.058136,143.091232 264.544312,154.183334 
	C277.237579,172.990540 295.136597,186.478577 312.394928,200.604446 
	C334.027130,218.310364 356.246063,235.353165 377.154449,253.875702 
	C401.368805,275.326904 420.963318,300.759766 435.293732,329.924133 
	C450.131287,360.120605 455.283447,391.890015 450.101624,425.290344 
	C446.268188,449.999237 437.184479,472.858215 426.270874,495.112915 
	C415.896790,516.267517 405.396973,537.362366 399.372711,560.311340 
	C395.888672,573.583618 393.780670,586.927307 396.343018,600.672668 
	C399.742401,618.908020 410.154633,632.717957 423.532501,644.822754 
	C443.276733,662.688049 466.244476,675.024475 490.586121,685.363342 
	C518.337341,697.150391 546.049133,709.099426 573.276428,722.033997 
	C609.339600,739.166138 634.303955,766.730713 647.149231,804.878296 
	C651.907043,819.008301 656.948792,833.042603 661.834412,847.129761 
	C664.944824,856.098206 669.528442,864.012939 677.212341,869.936401 
	C695.903870,884.345398 723.149048,878.660156 732.436462,858.204956 
	C737.280640,847.535828 738.624634,836.186707 737.724854,824.594910 
	C735.944336,801.657654 730.010864,779.526367 724.793274,757.223938 
	C718.716064,731.247437 712.733032,705.201904 708.181885,678.931152 
	C704.928528,660.152222 703.142334,640.987305 702.463318,621.931763 
	C701.795532,603.190918 702.371826,584.274902 704.206238,565.612976 
	C706.002747,547.336792 710.039978,529.278442 713.152893,511.134644 
	C720.050781,470.930603 732.785645,432.884857 752.869080,397.139069 
	C781.740662,345.751587 822.397827,308.733093 878.609924,289.488281 
	C918.160522,275.947754 959.398926,272.818207 1000.571472,269.153351 
	C1014.645203,267.900635 1028.714478,266.597778 1042.788208,265.344696 
	C1055.523804,264.210754 1068.262573,263.113464 1081.000000,262.000000 
	C1081.000000,300.354218 1081.000000,338.708466 1080.570679,377.466736 
	C1059.302246,381.010956 1038.427612,383.934052 1017.632141,387.340668 
	C983.827515,392.878357 951.858887,404.435394 920.875671,418.602600 
	C887.489258,433.868683 859.609985,456.590942 836.474304,484.959259 
	C805.185852,523.324402 788.514038,567.208862 788.007202,616.967651 
	C787.654724,651.567749 793.418274,685.274719 805.565674,717.491882 
	C824.385925,767.406555 855.574768,809.041504 896.708862,842.641296 
	C928.893005,868.930420 962.481445,893.509766 995.632507,918.602356 
	C1014.053589,932.545593 1033.061523,945.716614 1051.407715,959.754700 
	C1061.690308,967.622803 1071.162598,976.550049 1081.000000,985.000000 
z"/>
<path fill="#D8C022" opacity="1.000000" stroke="none" 
	d="
M1.000000,941.468628 
	C36.368641,936.811646 71.560257,933.849792 105.026955,950.747375 
	C121.691086,959.161194 135.734680,970.536560 146.889557,985.428711 
	C166.837753,1012.060486 181.975861,1040.868530 187.705154,1074.136597 
	C192.467606,1101.790405 194.442764,1129.591919 193.524658,1157.594116 
	C192.924774,1175.890869 191.906754,1194.174927 190.968079,1212.459229 
	C189.474884,1241.544800 187.689972,1270.616699 186.395569,1299.710693 
	C184.636703,1339.244507 186.024948,1378.320068 200.081772,1416.176270 
	C217.060516,1461.901489 247.273666,1493.259888 294.525513,1507.200562 
	C317.562103,1513.996826 341.005463,1514.331421 364.671997,1511.338379 
	C419.704010,1504.378540 465.919220,1477.949463 509.421173,1445.711060 
	C546.495728,1418.235962 581.121094,1387.786621 616.020813,1357.637695 
	C643.948059,1333.511963 672.021179,1309.386230 703.136658,1289.299194 
	C724.566101,1275.465088 747.442810,1264.603638 772.489380,1258.885986 
	C806.542725,1251.112061 839.576355,1255.203613 871.458191,1268.555664 
	C904.287415,1282.304443 934.765442,1300.554077 965.383423,1318.585205 
	C996.415466,1336.860352 1028.042603,1354.133789 1059.588379,1371.520386 
	C1066.064087,1375.089355 1073.333984,1377.217285 1080.618896,1380.004761 
	C1081.000000,1430.687622 1081.000000,1481.375122 1080.623779,1532.572021 
	C1070.103638,1528.563232 1059.476929,1524.884644 1049.903442,1519.375732 
	C1016.337158,1500.060547 983.256348,1479.903076 949.744019,1460.492188 
	C931.195679,1449.748535 912.136475,1439.888794 893.341187,1429.569214 
	C852.694336,1407.252319 809.447876,1404.705200 764.842896,1412.679077 
	C729.559448,1418.986694 697.294922,1433.283569 666.145386,1450.412964 
	C613.573914,1479.322266 568.407043,1517.797241 526.260132,1559.949951 
	C493.743896,1592.470825 462.090759,1625.852905 429.905914,1658.707031 
	C403.313843,1685.852051 372.753204,1706.863403 336.277405,1718.713623 
	C318.579224,1724.463379 301.099182,1730.996704 282.462677,1733.094482 
	C252.464249,1736.470947 222.733109,1732.613037 193.691498,1726.294678 
	C150.928314,1716.991089 118.526749,1691.378418 93.811722,1655.742310 
	C74.587921,1628.023926 64.021889,1596.731323 58.006634,1563.986938 
	C48.753117,1513.614624 40.288582,1463.092773 31.955130,1412.557495 
	C26.200306,1377.659546 18.402470,1343.407959 3.876878,1310.979980 
	C3.221700,1309.517334 1.972514,1308.320557 1.000000,1307.000000 
	C1.000000,1185.312500 1.000000,1063.624878 1.000000,941.468628 
z"/>
<path fill="#D8C022" opacity="1.000000" stroke="none" 
	d="
M145.531342,1.000001 
	C140.104614,3.418447 134.258896,5.967464 128.304764,8.231429 
	C108.587921,15.728469 88.829048,23.193851 71.966324,36.318512 
	C56.251472,48.549755 43.764248,63.197510 39.806477,83.455040 
	C37.026978,97.681679 40.118328,111.154915 45.888245,124.175850 
	C62.241203,161.079468 90.545395,185.497086 127.560097,199.540070 
	C156.967819,210.697067 187.167023,219.760712 216.972092,229.879593 
	C245.782333,239.660736 273.943390,250.815247 298.913239,268.756134 
	C321.568573,285.034027 340.006042,304.552856 348.495819,331.904114 
	C354.596100,351.557190 354.281281,371.572723 351.584259,391.673096 
	C347.230499,424.120972 332.476013,452.479279 316.777161,480.532440 
	C300.164276,510.218994 283.669312,539.981262 267.743225,570.039124 
	C256.323853,591.591309 248.614594,614.605103 246.371078,639.012024 
	C242.150055,684.931885 267.570343,732.406799 318.014862,746.815430 
	C341.472412,753.515686 365.442871,754.503113 389.668762,753.398865 
	C413.608215,752.307495 437.587219,750.927002 461.525513,751.276611 
	C487.926910,751.662231 512.606445,758.775391 534.130737,775.093872 
	C549.836243,787.000916 558.498413,803.145630 564.242676,821.492493 
	C572.853333,848.994629 571.355103,876.581970 565.766418,904.272644 
	C561.797974,923.935303 556.699524,943.429321 553.929504,963.253479 
	C552.065308,976.595093 552.165588,990.511230 553.594543,1003.935364 
	C555.292908,1019.891174 568.276672,1029.515625 585.975708,1031.960327 
	C605.406677,1034.644043 622.549072,1029.011230 638.394043,1018.680725 
	C652.866882,1009.244995 666.778076,998.952698 681.094727,989.271362 
	C698.585205,977.443848 717.358032,968.606812 738.354553,964.770813 
	C762.039246,960.443726 784.457947,964.111572 806.441406,973.462585 
	C829.192078,983.140015 848.739990,997.626648 868.194885,1012.431213 
	C895.972778,1033.569336 923.546265,1055.062256 954.194214,1072.022217 
	C981.807312,1087.302734 1011.518921,1094.812378 1043.139160,1093.746094 
	C1056.654907,1093.290405 1069.233887,1089.207397 1080.721802,1081.194946 
	C1081.000000,1127.020874 1081.000000,1173.041870 1081.000000,1219.531372 
	C1056.009155,1219.946045 1031.921021,1214.360840 1008.073486,1207.692139 
	C979.535461,1199.711792 952.889709,1186.869873 925.974060,1174.783447 
	C885.279175,1156.509644 844.982849,1137.298096 803.878357,1120.003296 
	C773.910950,1107.394775 742.480408,1098.376465 710.289001,1093.455688 
	C668.908630,1087.130249 627.613647,1089.271973 587.230835,1100.714722 
	C545.480957,1112.544678 504.002991,1125.333374 462.395264,1137.666138 
	C446.429657,1142.398560 430.253601,1146.050781 413.478394,1145.882935 
	C409.008698,1145.838257 404.509186,1145.338501 400.086060,1144.646851 
	C374.422333,1140.634033 366.845795,1115.781982 370.415924,1096.769409 
	C377.137451,1060.973755 388.551361,1026.531250 400.294647,992.168701 
	C408.075165,969.401611 413.121429,946.030762 412.726532,921.874268 
	C412.362396,899.600952 408.166626,878.281494 393.899567,860.081177 
	C382.318817,845.307739 366.617584,836.709229 349.857391,829.275391 
	C322.224518,817.019104 293.179230,810.855835 263.293030,808.017334 
	C234.339828,805.267334 205.366241,802.732117 176.412537,799.987427 
	C146.296417,797.132507 116.368134,793.356750 87.900574,782.178284 
	C69.162178,774.820190 53.956917,763.434082 44.450726,745.297302 
	C35.996769,729.168030 36.242840,712.488403 41.412952,695.497864 
	C48.326874,672.776672 61.111935,653.463074 76.555397,635.837341 
	C104.651993,603.770447 133.282150,572.168396 161.184311,539.934875 
	C179.406693,518.883850 195.079926,496.031647 204.937668,469.669281 
	C220.104965,429.107697 214.534439,391.986023 187.364212,357.898163 
	C168.672882,334.447937 145.012970,317.196655 120.148041,301.227020 
	C85.972229,279.277374 49.344440,262.040497 12.505553,245.208069 
	C8.893177,243.557510 5.302565,241.859314 1.350925,240.091614 
	C1.000000,160.424164 1.000000,80.848335 1.000000,1.000000 
	C49.020550,1.000000 97.041618,1.000000 145.531342,1.000001 
z"/>
<path fill="#D8C022" opacity="1.000000" stroke="none" 
	d="
M1081.000000,261.531342 
	C1068.262573,263.113464 1055.523804,264.210754 1042.788208,265.344696 
	C1028.714478,266.597778 1014.645203,267.900635 1000.571472,269.153351 
	C959.398926,272.818207 918.160522,275.947754 878.609924,289.488281 
	C822.397827,308.733093 781.740662,345.751587 752.869080,397.139069 
	C732.785645,432.884857 720.050781,470.930603 713.152893,511.134644 
	C710.039978,529.278442 706.002747,547.336792 704.206238,565.612976 
	C702.371826,584.274902 701.795532,603.190918 702.463318,621.931763 
	C703.142334,640.987305 704.928528,660.152222 708.181885,678.931152 
	C712.733032,705.201904 718.716064,731.247437 724.793274,757.223938 
	C730.010864,779.526367 735.944336,801.657654 737.724854,824.594910 
	C738.624634,836.186707 737.280640,847.535828 732.436462,858.204956 
	C723.149048,878.660156 695.903870,884.345398 677.212341,869.936401 
	C669.528442,864.012939 664.944824,856.098206 661.834412,847.129761 
	C656.948792,833.042603 651.907043,819.008301 647.149231,804.878296 
	C634.303955,766.730713 609.339600,739.166138 573.276428,722.033997 
	C546.049133,709.099426 518.337341,697.150391 490.586121,685.363342 
	C466.244476,675.024475 443.276733,662.688049 423.532501,644.822754 
	C410.154633,632.717957 399.742401,618.908020 396.343018,600.672668 
	C393.780670,586.927307 395.888672,573.583618 399.372711,560.311340 
	C405.396973,537.362366 415.896790,516.267517 426.270874,495.112915 
	C437.184479,472.858215 446.268188,449.999237 450.101624,425.290344 
	C455.283447,391.890015 450.131287,360.120605 435.293732,329.924133 
	C420.963318,300.759766 401.368805,275.326904 377.154449,253.875702 
	C356.246063,235.353165 334.027130,218.310364 312.394928,200.604446 
	C295.136597,186.478577 277.237579,172.990540 264.544312,154.183334 
	C257.058136,143.091232 251.037857,131.401276 249.712021,117.714432 
	C247.803635,98.013641 255.302094,82.576286 270.902435,71.066826 
	C286.510956,59.551331 304.334717,52.172432 322.136261,44.802845 
	C343.477600,35.967846 364.660492,26.758553 383.471344,13.052836 
	C388.288849,9.542769 392.699402,5.474156 397.148438,1.331071 
	C425.020905,1.000000 453.041779,1.000000 481.517151,1.421140 
	C479.898407,19.022345 477.666748,36.185074 475.785828,53.386162 
	C472.116791,86.939529 471.883118,120.609924 474.685760,154.181656 
	C477.037720,182.354950 480.434723,210.469147 484.301880,238.480728 
	C489.237152,274.228821 494.347717,309.985596 500.780731,345.485321 
	C508.130096,386.042053 516.645447,426.400452 525.360107,466.692352 
	C531.521057,495.177246 540.608643,522.793518 554.172485,548.751648 
	C560.168762,560.227173 567.338745,570.741333 578.510742,577.926636 
	C590.523071,585.652344 600.981140,584.739868 610.781128,574.353088 
	C622.041077,562.418823 630.347900,548.621216 633.828369,532.432251 
	C639.967529,503.876404 642.892639,474.916412 643.833130,445.743408 
	C645.164062,404.456451 646.002014,363.145630 648.000671,321.891022 
	C649.349792,294.043518 655.006897,266.827423 664.899536,240.638397 
	C674.714478,214.655136 689.088379,191.812973 711.034729,174.229416 
	C731.018860,158.218079 754.201599,149.050751 779.053589,145.054153 
	C815.496887,139.193497 852.168579,134.732773 888.772278,129.897034 
	C917.973633,126.039230 947.029541,121.521927 975.246521,112.777466 
	C1007.905762,102.656342 1038.457886,88.380539 1065.209106,66.700821 
	C1070.457031,62.447826 1075.735596,58.232613 1081.000000,54.000000 
	C1081.000000,123.020897 1081.000000,192.041794 1081.000000,261.531342 
z"/>
<path fill="#222222" opacity="1.000000" stroke="none" 
	d="
M1081.000000,1715.000000 
	C1081.000000,1772.020874 1081.000000,1829.041870 1080.613281,1886.425781 
	C1066.207397,1884.133423 1052.221924,1881.281006 1038.161255,1878.867065 
	C1015.114014,1874.909912 991.986511,1871.417358 968.950439,1867.398560 
	C941.568542,1862.621460 914.057678,1858.912231 886.239075,1859.177856 
	C867.296570,1859.358765 848.296875,1860.175293 829.450745,1862.017700 
	C809.165588,1864.000977 788.926147,1866.928589 768.852173,1870.489258 
	C734.512207,1876.580322 701.379150,1887.428833 668.421509,1898.492432 
	C599.739624,1921.548340 532.636536,1948.731934 466.295624,1977.805054 
	C464.423279,1978.625610 462.760529,1979.924316 461.000000,1981.000000 
	C307.777924,1981.000000 154.555862,1981.000000 1.000000,1981.000000 
	C1.000000,1933.646240 1.000000,1886.291748 1.353627,1838.360474 
	C2.855906,1838.452393 4.023839,1839.090210 5.150278,1839.794434 
	C28.558634,1854.425293 52.798370,1867.354736 79.005234,1876.352417 
	C118.087807,1889.770752 157.942459,1899.210815 199.408142,1901.292725 
	C226.081055,1902.631958 252.745056,1902.864502 279.112488,1898.703247 
	C312.619293,1893.415283 345.105774,1883.523560 376.599365,1871.268066 
	C425.096527,1852.395752 467.077728,1822.689087 506.608887,1789.208374 
	C539.960938,1760.960938 570.675476,1729.964966 602.172913,1699.763306 
	C619.232300,1683.405762 636.281250,1666.743286 655.139526,1652.629639 
	C678.896423,1634.849731 705.013550,1620.570923 732.498474,1608.856934 
	C766.657104,1594.298950 801.605347,1593.340088 836.933960,1602.044800 
	C868.595764,1609.845825 898.602539,1622.269409 927.444641,1637.621216 
	C945.257324,1647.102417 964.074951,1654.742554 981.638611,1664.634644 
	C1014.044189,1682.885986 1046.685547,1700.562866 1081.000000,1715.000000 
z"/>
<path fill="#232322" opacity="1.000000" stroke="none" 
	d="
M1.000000,1307.468628 
	C1.972514,1308.320557 3.221700,1309.517334 3.876878,1310.979980 
	C18.402470,1343.407959 26.200306,1377.659546 31.955130,1412.557495 
	C40.288582,1463.092773 48.753117,1513.614624 58.006634,1563.986938 
	C64.021889,1596.731323 74.587921,1628.023926 93.811722,1655.742310 
	C118.526749,1691.378418 150.928314,1716.991089 193.691498,1726.294678 
	C222.733109,1732.613037 252.464249,1736.470947 282.462677,1733.094482 
	C301.099182,1730.996704 318.579224,1724.463379 336.277405,1718.713623 
	C372.753204,1706.863403 403.313843,1685.852051 429.905914,1658.707031 
	C462.090759,1625.852905 493.743896,1592.470825 526.260132,1559.949951 
	C568.407043,1517.797241 613.573914,1479.322266 666.145386,1450.412964 
	C697.294922,1433.283569 729.559448,1418.986694 764.842896,1412.679077 
	C809.447876,1404.705200 852.694336,1407.252319 893.341187,1429.569214 
	C912.136475,1439.888794 931.195679,1449.748535 949.744019,1460.492188 
	C983.256348,1479.903076 1016.337158,1500.060547 1049.903442,1519.375732 
	C1059.476929,1524.884644 1070.103638,1528.563232 1080.623779,1533.040527 
	C1081.000000,1562.354248 1081.000000,1591.708496 1080.687866,1621.776489 
	C1073.673828,1618.191650 1066.631836,1614.337280 1060.331909,1609.513672 
	C1038.806885,1593.032837 1017.453979,1576.323364 996.196106,1559.498169 
	C939.273010,1514.444702 874.674316,1499.477051 803.702698,1511.162354 
	C748.503601,1520.250488 701.143372,1545.784302 660.658691,1583.865845 
	C637.374695,1605.767700 615.191833,1628.846680 592.668091,1651.549194 
	C559.143127,1685.339966 526.855042,1720.309448 488.999542,1749.663086 
	C452.312592,1778.110718 413.837646,1802.933960 370.697083,1820.588867 
	C331.691833,1836.551636 291.582703,1846.118164 249.375504,1846.900879 
	C224.870255,1847.355225 200.512314,1846.005005 176.198242,1843.004028 
	C151.272049,1839.927612 126.731461,1835.331055 103.194542,1826.267822 
	C62.777237,1810.704590 28.672276,1786.338989 1.000000,1753.000000 
	C1.000000,1604.645752 1.000000,1456.291504 1.000000,1307.468628 
z"/>
<path fill="#232322" opacity="1.000000" stroke="none" 
	d="
M1081.000000,53.531342 
	C1075.735596,58.232613 1070.457031,62.447826 1065.209106,66.700821 
	C1038.457886,88.380539 1007.905762,102.656342 975.246521,112.777466 
	C947.029541,121.521927 917.973633,126.039230 888.772278,129.897034 
	C852.168579,134.732773 815.496887,139.193497 779.053589,145.054153 
	C754.201599,149.050751 731.018860,158.218079 711.034729,174.229416 
	C689.088379,191.812973 674.714478,214.655136 664.899536,240.638397 
	C655.006897,266.827423 649.349792,294.043518 648.000671,321.891022 
	C646.002014,363.145630 645.164062,404.456451 643.833130,445.743408 
	C642.892639,474.916412 639.967529,503.876404 633.828369,532.432251 
	C630.347900,548.621216 622.041077,562.418823 610.781128,574.353088 
	C600.981140,584.739868 590.523071,585.652344 578.510742,577.926636 
	C567.338745,570.741333 560.168762,560.227173 554.172485,548.751648 
	C540.608643,522.793518 531.521057,495.177246 525.360107,466.692352 
	C516.645447,426.400452 508.130096,386.042053 500.780731,345.485321 
	C494.347717,309.985596 489.237152,274.228821 484.301880,238.480728 
	C480.434723,210.469147 477.037720,182.354950 474.685760,154.181656 
	C471.883118,120.609924 472.116791,86.939529 475.785828,53.386162 
	C477.666748,36.185074 479.898407,19.022345 481.985779,1.421140 
	C509.354218,1.000000 536.708435,1.000000 564.424316,1.373417 
	C564.608704,2.212913 564.388672,2.667541 564.260376,3.146717 
	C552.426270,47.336967 545.288574,92.329758 540.714050,137.807388 
	C537.855347,166.226257 537.055237,194.522079 541.808716,222.812119 
	C544.244751,237.309967 548.398682,251.204620 555.393738,264.185333 
	C559.087341,271.039642 563.612244,272.203583 570.085815,267.875488 
	C571.597168,266.865021 573.199463,265.780487 574.274292,264.362061 
	C580.369995,256.317719 587.300964,248.703781 592.133911,239.942825 
	C607.199890,212.632172 621.404358,184.847290 636.031433,157.293335 
	C662.047974,108.284462 697.624268,68.092026 746.700806,41.390232 
	C767.153931,30.261976 789.129089,21.933723 810.398132,12.301314 
	C818.618713,8.578321 826.800537,4.769624 835.000000,0.999990 
	C916.879822,1.000000 998.759705,1.000000 1081.000000,1.000000 
	C1081.000000,18.352564 1081.000000,35.707623 1081.000000,53.531342 
z"/>
<path fill="#D8C022" opacity="1.000000" stroke="none" 
	d="
M1081.000000,984.531372 
	C1071.162598,976.550049 1061.690308,967.622803 1051.407715,959.754700 
	C1033.061523,945.716614 1014.053589,932.545593 995.632507,918.602356 
	C962.481445,893.509766 928.893005,868.930420 896.708862,842.641296 
	C855.574768,809.041504 824.385925,767.406555 805.565674,717.491882 
	C793.418274,685.274719 787.654724,651.567749 788.007202,616.967651 
	C788.514038,567.208862 805.185852,523.324402 836.474304,484.959259 
	C859.609985,456.590942 887.489258,433.868683 920.875671,418.602600 
	C951.858887,404.435394 983.827515,392.878357 1017.632141,387.340668 
	C1038.427612,383.934052 1059.302246,381.010956 1080.570679,377.935364 
	C1081.000000,424.020905 1081.000000,470.041779 1080.612305,516.466980 
	C1072.598755,519.677490 1064.841309,522.173584 1057.370605,525.344971 
	C1029.077881,537.355347 1001.683411,551.021484 980.598999,574.198425 
	C953.248352,604.263428 942.138428,639.882446 947.602905,680.075439 
	C952.559998,716.536377 966.846008,749.550720 986.783936,780.392212 
	C1012.880920,820.760742 1045.693726,855.403442 1078.645996,889.971008 
	C1079.190918,890.542542 1080.204956,890.666992 1081.000000,891.000000 
	C1081.000000,922.020874 1081.000000,953.041809 1081.000000,984.531372 
z"/>
<path fill="#D7C022" opacity="1.000000" stroke="none" 
	d="
M1.000000,1753.468628 
	C28.672276,1786.338989 62.777237,1810.704590 103.194542,1826.267822 
	C126.731461,1835.331055 151.272049,1839.927612 176.198242,1843.004028 
	C200.512314,1846.005005 224.870255,1847.355225 249.375504,1846.900879 
	C291.582703,1846.118164 331.691833,1836.551636 370.697083,1820.588867 
	C413.837646,1802.933960 452.312592,1778.110718 488.999542,1749.663086 
	C526.855042,1720.309448 559.143127,1685.339966 592.668091,1651.549194 
	C615.191833,1628.846680 637.374695,1605.767700 660.658691,1583.865845 
	C701.143372,1545.784302 748.503601,1520.250488 803.702698,1511.162354 
	C874.674316,1499.477051 939.273010,1514.444702 996.196106,1559.498169 
	C1017.453979,1576.323364 1038.806885,1593.032837 1060.331909,1609.513672 
	C1066.631836,1614.337280 1073.673828,1618.191650 1080.687866,1622.245117 
	C1081.000000,1652.687622 1081.000000,1683.375122 1081.000000,1714.531372 
	C1046.685547,1700.562866 1014.044189,1682.885986 981.638611,1664.634644 
	C964.074951,1654.742554 945.257324,1647.102417 927.444641,1637.621216 
	C898.602539,1622.269409 868.595764,1609.845825 836.933960,1602.044800 
	C801.605347,1593.340088 766.657104,1594.298950 732.498474,1608.856934 
	C705.013550,1620.570923 678.896423,1634.849731 655.139526,1652.629639 
	C636.281250,1666.743286 619.232300,1683.405762 602.172913,1699.763306 
	C570.675476,1729.964966 539.960938,1760.960938 506.608887,1789.208374 
	C467.077728,1822.689087 425.096527,1852.395752 376.599365,1871.268066 
	C345.105774,1883.523560 312.619293,1893.415283 279.112488,1898.703247 
	C252.745056,1902.864502 226.081055,1902.631958 199.408142,1901.292725 
	C157.942459,1899.210815 118.087807,1889.770752 79.005234,1876.352417 
	C52.798370,1867.354736 28.558634,1854.425293 5.150278,1839.794434 
	C4.023839,1839.090210 2.855906,1838.452393 1.353627,1837.891846 
	C1.000000,1809.979126 1.000000,1781.958130 1.000000,1753.468628 
z"/>
<path fill="#D7C022" opacity="1.000000" stroke="none" 
	d="
M461.468658,1981.000000 
	C462.760529,1979.924316 464.423279,1978.625610 466.295624,1977.805054 
	C532.636536,1948.731934 599.739624,1921.548340 668.421509,1898.492432 
	C701.379150,1887.428833 734.512207,1876.580322 768.852173,1870.489258 
	C788.926147,1866.928589 809.165588,1864.000977 829.450745,1862.017700 
	C848.296875,1860.175293 867.296570,1859.358765 886.239075,1859.177856 
	C914.057678,1858.912231 941.568542,1862.621460 968.950439,1867.398560 
	C991.986511,1871.417358 1015.114014,1874.909912 1038.161255,1878.867065 
	C1052.221924,1881.281006 1066.207397,1884.133423 1080.613281,1886.894409 
	C1081.000000,1905.020874 1081.000000,1923.041870 1080.536499,1941.456787 
	C1071.745117,1941.788818 1063.411499,1941.905029 1055.090332,1941.635498 
	C1006.326782,1940.055542 957.568115,1938.322388 908.804016,1936.761108 
	C845.207581,1934.724976 782.063171,1938.180176 719.739258,1952.119995 
	C687.160339,1959.406982 654.487915,1966.267456 623.231018,1978.363647 
	C621.708618,1978.952881 620.405334,1980.108276 619.000000,1981.000000 
	C566.645752,1981.000000 514.291565,1981.000000 461.468658,1981.000000 
z"/>
<path fill="#232222" opacity="1.000000" stroke="none" 
	d="
M1081.000000,890.531372 
	C1080.204956,890.666992 1079.190918,890.542542 1078.645996,889.971008 
	C1045.693726,855.403442 1012.880920,820.760742 986.783936,780.392212 
	C966.846008,749.550720 952.559998,716.536377 947.602905,680.075439 
	C942.138428,639.882446 953.248352,604.263428 980.598999,574.198425 
	C1001.683411,551.021484 1029.077881,537.355347 1057.370605,525.344971 
	C1064.841309,522.173584 1072.598755,519.677490 1080.612305,516.935669 
	C1081.000000,641.354248 1081.000000,765.708435 1081.000000,890.531372 
z"/>
<path fill="#D8C022" opacity="1.000000" stroke="none" 
	d="
M834.531372,0.999990 
	C826.800537,4.769624 818.618713,8.578321 810.398132,12.301314 
	C789.129089,21.933723 767.153931,30.261976 746.700806,41.390232 
	C697.624268,68.092026 662.047974,108.284462 636.031433,157.293335 
	C621.404358,184.847290 607.199890,212.632172 592.133911,239.942825 
	C587.300964,248.703781 580.369995,256.317719 574.274292,264.362061 
	C573.199463,265.780487 571.597168,266.865021 570.085815,267.875488 
	C563.612244,272.203583 559.087341,271.039642 555.393738,264.185333 
	C548.398682,251.204620 544.244751,237.309967 541.808716,222.812119 
	C537.055237,194.522079 537.855347,166.226257 540.714050,137.807388 
	C545.288574,92.329758 552.426270,47.336967 564.260376,3.146717 
	C564.388672,2.667541 564.608704,2.212913 564.892944,1.373417 
	C654.687561,1.000000 744.375122,1.000000 834.531372,0.999990 
z"/>
<path fill="#232322" opacity="1.000000" stroke="none" 
	d="
M619.468628,1981.000000 
	C620.405334,1980.108276 621.708618,1978.952881 623.231018,1978.363647 
	C654.487915,1966.267456 687.160339,1959.406982 719.739258,1952.119995 
	C782.063171,1938.180176 845.207581,1934.724976 908.804016,1936.761108 
	C957.568115,1938.322388 1006.326782,1940.055542 1055.090332,1941.635498 
	C1063.411499,1941.905029 1071.745117,1941.788818 1080.536499,1941.925293 
	C1081.000000,1954.988647 1081.000000,1967.977295 1081.000000,1981.000000 
	C927.312439,1981.000000 773.624878,1981.000000 619.468628,1981.000000 
z"/>
</svg>